<svg id="terkep2" viewBox="0 0 700 300" height="100%" width="100%">

  <path
     
     d="m 2220.6973,1129.3258 c -124.9647,-1.7554 -227.6223,-3.5714 -228.1278,-4.0356 -1.4291,-1.3121 -16.0499,-284.98127 -14.7552,-286.27598 1.7654,-1.76535 173.8936,-24.05216 207.0124,-26.80355 16.1241,-1.33952 33.9863,-2.99852 39.6938,-3.68666 l 10.3773,-1.25117 v 48.00012 48.00012 l 59.6885,1.59869 59.6884,1.59869 49.9032,111.72764 c 27.4468,61.4503 50.2923,112.465 50.7678,113.3662 0.4754,0.9012 -0.914,1.4843 -3.0877,1.2958 -2.1737,-0.1884 -106.196,-1.7789 -231.1607,-3.5343 z"
     id="path27"

  <path
     
     d="m 1930.4274,772.75602 -45.2187,-62.29223 30.463,-29.49342 30.4629,-29.49342 -1.204,-48.60953 c -0.6622,-26.73525 -0.8218,-48.61882 -0.3546,-48.63016 0.4671,-0.0114 27.3934,-1.95924 59.8362,-4.32863 32.4427,-2.36941 60.0743,-4.32636 61.4034,-4.34877 1.717,-0.0291 2.7361,-31.04942 3.5201,-107.15196 0.6069,-58.91115 1.4974,-107.50509 1.9788,-107.98652 0.4815,-0.48144 42.6042,2.97164 93.606,7.67351 l 92.7307,8.54886 13.9157,13.68828 c 7.6537,7.52855 38.4665,38.93259 68.4729,69.78675 l 54.5571,56.09848 -22.1465,70.614 c -12.1806,38.83771 -23.2893,72.21677 -24.6859,74.17568 -1.3967,1.95891 -44.6772,43.2497 -96.1789,91.75731 l -93.6394,88.19565 -91.1501,12.04418 -91.15,12.04417 z"
     id="path28"

  <path
     
     d="m 2407.8087,1018.7198 -51.0207,-114.35525 -11.2432,-1.35085 c -6.1838,-0.74297 -32.626,-1.3594 -58.7604,-1.36985 l -47.5172,-0.019 v -48.39049 -48.39051 l -19.1161,1.40131 c -10.5139,0.77072 -27.4726,2.01545 -37.686,2.76606 l -18.57,1.36476 8.7388,-8.686 c 6.8174,-6.77622 139.549,-131.74178 172.7679,-162.65945 l 6.7309,-6.26456 141.4497,10.79714 c 77.7973,5.93842 142.0431,11.39057 142.7684,12.11588 1.2732,1.27317 6.678,336.45927 6.9514,431.09901 l 0.1341,46.4249 -92.3034,-0.064 -92.3035,-0.064 -51.0207,-114.3553 z"
     id="path29"

  <path
     
     d="m 2481.7687,640.02253 c -70.2927,-5.40905 -127.9982,-9.98968 -128.2345,-10.17916 -0.2364,-0.18942 7.4092,-25.38445 16.9902,-55.98877 9.5809,-30.60433 19.7886,-63.31887 22.6837,-72.69899 l 5.2639,-17.05476 -67.5315,-68.34239 -67.5316,-68.3424 72.3967,-1.44459 c 39.8181,-0.79453 83.8188,-1.44459 97.7793,-1.44459 h 25.3827 l 26.1473,23.95772 c 14.381,13.17674 26.6388,23.98096 27.2396,24.00938 0.6008,0.0284 13.3606,-10.25582 28.3551,-22.85384 16.1429,-13.56294 28.6181,-22.50089 30.5857,-21.9135 1.8277,0.5456 18.0698,4.60974 36.0935,9.03142 18.0238,4.42168 33.6369,8.81813 34.6959,9.7699 1.9072,1.7141 -1.9831,243.14012 -4.354,270.20228 l -1.1962,13.65436 -13.4805,-0.26372 c -7.4143,-0.14502 -70.9926,-4.68928 -141.2853,-10.09835 z"
     id="path30"

  <path
     
     d="m 2486.1381,364.68956 -25.124,-23.36611 -56.3059,-90.30525 c -30.9682,-49.66788 -56.5292,-91.10299 -56.8021,-92.07802 -0.273,-0.97503 24.0815,-21.15363 54.1211,-44.84133 30.0396,-23.687699 55.4476,-43.855699 56.4621,-44.817781 1.0146,-0.962082 -14.4695,-15.758793 -34.409,-32.881579 -19.9395,-17.122787 -36.2536,-31.4818016 -36.2536,-31.9089217 0,-0.4271198 57.5122,-0.7765817 127.8048,-0.7765817 h 127.8048 V 182.85922 c 0,98.52988 -0.5358,179.14524 -1.1906,179.14524 -0.6549,0 -16.832,-3.93246 -35.9492,-8.73879 -19.1172,-4.80634 -36.2135,-8.73879 -37.9918,-8.73879 -1.7783,0 -14.8488,9.81169 -29.0456,21.80374 -14.1967,11.99207 -26.3038,21.78605 -26.9046,21.7644 -0.6008,-0.0218 -12.3982,-10.5541 -26.2164,-23.40546 z"
     id="path31"

  <path
     
     d="m 2222.6276,313.9411 -36.6864,-29.49342 -8.8384,-34.75664 -8.8383,-34.75667 -37.1398,-13.85993 c -20.427,-7.62297 -41.4285,-15.45489 -46.6701,-17.40427 l -9.5302,-3.54432 1.3847,-69.08983 c 0.7616,-37.999398 1.9595,-77.692067 2.6619,-88.205926 l 1.2771,-19.1161074 h 150.1235 150.1235 l 35.8901,30.7006394 c 19.7395,16.885352 36.1836,31.529457 36.5423,32.542453 0.3587,1.012996 -24.4648,21.671542 -55.1634,45.907881 -46.8115,36.95742 -55.4739,44.65958 -53.6974,47.7452 1.1649,2.02352 27.0497,43.49525 57.5216,92.1594 l 55.4034,88.48027 -7.8199,0.4916 c -4.301,0.2704 -48.7785,0.76196 -98.8389,1.09235 l -91.0189,0.60075 z"
     id="path32"

  <path
     
     d="m 2027.3933,174.42429 -27.2669,-3.58091 -36.6207,-85.006936 -36.6207,-85.00694045 56.0494,1.44224155 c 30.8271,0.7932328 64.3561,1.4422415 74.5088,1.4422415 h 18.4594 l -1.3983,72.6412084 c -0.7691,39.952665 -1.9617,79.277225 -2.6503,87.387925 l -1.252,14.74671 -7.9709,-0.24232 c -4.384,-0.13327 -20.241,-1.85373 -35.2378,-3.82322 z"
     id="path33"

  <path
     
     d="m 1939.0174,156.37794 c -28.7576,-7.10326 -52.6007,-13.22919 -52.9847,-13.61319 -0.5844,-0.58442 17.3627,-64.155396 34.5712,-122.455304 l 4.4519,-15.0826608 34.7626,80.5176478 c 19.1195,44.284707 34.7626,81.302667 34.7626,82.262127 0,2.26154 4.393,3.18093 -55.5636,-11.62862 z"
     id="path34"

  <path
     
     d="m 1915.1721,421.07197 c -20.2441,-8.28995 -37.3214,-15.58671 -37.9498,-16.21503 -1.2383,-1.23833 5.3062,-223.31098 7.2234,-245.10882 l 1.168,-13.27997 56.1222,13.70382 c 35.1855,8.59154 67.1248,14.98223 85.6156,17.13071 16.2214,1.8848 32.7747,3.96679 36.7852,4.62665 l 7.2918,1.19975 -1.5486,63.76749 c -0.8517,35.07212 -2.1668,67.51666 -2.9224,72.09898 -1.3734,8.32936 -1.3816,8.335 -31.8907,22.03217 l -30.517,13.70067 -24.4834,40.17729 c -13.4658,22.09753 -25.2942,40.41615 -26.2852,40.70809 -0.991,0.29195 -18.3651,-6.25188 -38.6091,-14.5418 z"
     id="path35"

  <path
     
     d="m 2152.9716,334.15002 c -44.4586,-4.20141 -81.1924,-7.9584 -81.6308,-8.34886 -1.3559,-1.20783 3.188,-138.41474 4.6318,-139.85847 1.1106,-1.11061 48.7248,15.5749 82.5721,28.93584 l 7.7578,3.06233 8.4664,34.6254 8.4664,34.62541 34.7002,27.57526 34.7002,27.57525 -9.4151,-0.27662 c -5.1783,-0.15214 -45.7904,-3.71413 -90.249,-7.91554 z"
     id="path36"

  <path
     
     d="m 2028.4439,505.64037 c -19.2254,-18.09169 -43.0368,-40.60064 -52.9144,-50.01989 l -17.9591,-17.12592 24.7463,-40.6496 24.7463,-40.6496 28.9757,-12.88834 c 15.9366,-7.08858 29.3496,-12.88833 29.8065,-12.88833 1.3652,0 0.4314,163.20854 -1.0643,186.03017 l -1.3819,21.08547 z"
     id="path37"

  <path
     
     d="m 1910.9455,481.6625 c -17.7624,-38.49805 -32.0146,-70.27708 -31.6716,-70.62007 0.343,-0.34298 16.9517,5.97583 36.9082,14.0418 26.8856,10.86656 38.8129,16.90466 46.0451,23.31 16.2362,14.38001 100.0164,93.55172 99.4837,94.01137 -0.2731,0.23564 -24.5829,2.04453 -54.0217,4.01976 -29.4388,1.97523 -55.9829,3.96085 -58.9868,4.41247 -5.2017,0.78204 -6.9998,-2.51228 -37.7569,-69.17533 z"
     id="path38"

  <path
     
     d="m 1341.3563,256.4179 c -27.0356,-2.23075 -49.5016,-4.39202 -49.9243,-4.80282 -0.4227,-0.41079 8.0977,-12.36223 18.9342,-26.55876 17.1253,-22.43504 31.2214,-36.36288 54.1338,-53.48732 1.3139,-0.98203 7.2126,-0.38788 13.1081,1.32033 5.8956,1.70822 14.7329,4.15227 19.6384,5.43123 l 8.9192,2.32538 10.5932,33.87711 c 5.8263,18.63241 11.187,33.87711 11.9128,33.87711 0.7257,0 4.5588,-6.56909 8.518,-14.59798 l 7.1986,-14.59798 11.4829,19.51355 c 8.8805,15.09108 10.6975,19.61496 8.0171,19.961 -17.7822,2.29567 -81.5743,1.11864 -122.532,-2.26085 z"
     id="path39"

  <path
     
     d="m 1284.4562,447.40281 c -46.3148,-10.55697 -85.2709,-19.58943 -86.5689,-20.07212 -1.3014,-0.48393 18.1992,-39.09946 43.4703,-86.08086 25.2067,-46.86177 46.0582,-85.45018 46.3367,-85.75202 0.8465,-0.91759 99.9931,7.91946 101.0834,9.00968 0.5587,0.55869 -2.2689,46.06061 -6.2835,101.11538 -6.0827,83.41528 -7.8435,100.17249 -10.5642,100.537 -1.7957,0.24058 -41.1589,-8.2001 -87.4738,-18.75706 z"
     id="path40"

  <path
     
     d="m 1446.1086,522.38467 c -32.9813,-25.86564 -61.7703,-48.80326 -63.9756,-50.97247 -3.8889,-3.82534 -3.7906,-6.95015 3.2684,-103.84152 4.0029,-54.94362 7.7735,-100.68221 8.379,-101.64132 0.6056,-0.9591 17.424,-2.45915 37.3743,-3.33344 l 36.2732,-1.58961 1.383,5.16659 c 0.7606,2.84163 1.3964,13.24241 1.4128,23.11286 0.029,17.46468 0.301,18.393 10.1365,34.59335 l 10.1067,16.64707 -7.6494,25.48585 -7.6494,25.48585 8.6536,24.03168 c 8.0381,22.32241 9.1861,28.60072 16.1401,88.27074 4.1176,35.33148 7.1774,64.54814 6.7996,64.92594 -0.3777,0.37778 -27.6715,-20.4759 -60.6528,-46.34157 z"
     id="path41"

  <path
     
     d="m 1223.4701,746.23318 c -0.048,-3.15694 -6.5195,-74.79875 -14.381,-159.20404 -7.8614,-84.40529 -14.0059,-154.16713 -13.6543,-155.02631 0.896,-2.18995 178.0083,38.22045 183.136,41.78478 6.8261,4.74493 126.2566,99.01105 125.8856,99.36114 -0.187,0.17652 -45.0718,3.43486 -99.7438,7.24076 -54.6721,3.8059 -101.4675,7.32966 -103.9897,7.83058 -3.7014,0.73507 -11.0302,15.56261 -37.9946,76.8701 -18.3748,41.77766 -34.7051,78.41716 -36.2897,81.42112 l -2.881,5.46175 -0.088,-5.73988 z"
     id="path42"

  <path
     
     d="m 1300.2496,784.74727 c -40.0317,-14.77937 -73.1003,-27.21656 -73.4857,-27.6382 -0.3855,-0.42164 15.3818,-37.14184 35.0384,-81.60044 19.6566,-44.45861 36.0122,-81.56549 36.3458,-82.45975 0.6073,-1.6278 207.3548,-17.37807 208.8243,-15.90849 1.7177,1.71769 -7.1643,93.45805 -9.3004,96.06144 -1.2619,1.53808 -26.8723,12.39593 -56.9119,24.12857 -30.0396,11.73263 -55.2685,21.94515 -56.0643,22.69447 -0.7957,0.74933 3.0187,9.04988 8.4764,18.44568 l 9.9232,17.08327 -12.5679,28.24922 c -6.9123,15.53706 -13.676,28.15169 -15.0305,28.03251 -1.3544,-0.11928 -35.2157,-12.30892 -75.2474,-27.08828 z"
     id="path43"

  <path
     
     d="m 146.60561,471.61876 -20.30638,-86.99383 67.86549,-114.84404 67.86549,-114.84408 -16.48667,-35.74067 -16.48666,-35.740676 10.5214,-39.859461 10.52139,-39.8594635 198.86793,-0.011277 198.8679,-0.011276 7.31424,51.8865775 7.31422,51.886576 -8.70827,53.51984 -8.7083,53.51984 22.91672,34.96043 22.91672,34.96043 -7.63648,14.20054 c -4.20008,7.81029 -17.07292,32.43247 -28.60631,54.71596 l -20.96982,40.51542 41.43225,41.38919 c 22.78773,22.76405 41.43223,42.00104 41.43223,42.74884 0,1.47779 -81.16476,58.18845 -85.85653,59.98885 -1.57596,0.60475 -24.58791,-11.22111 -51.13771,-26.27971 -26.54978,-15.05857 -49.59861,-27.37096 -51.21959,-27.36089 -1.62098,0.0109 -19.02944,4.92564 -38.68545,10.92349 -19.65602,5.99785 -37.03422,10.90516 -38.61821,10.90516 -1.58399,0 -31.12059,-14.89005 -65.63692,-33.089 -71.48495,-37.69091 -60.70017,-35.50825 -95.65521,-19.35898 -16.3074,7.53406 -23.04184,12.82116 -62.80749,49.30925 -24.49786,22.47868 -48.02051,44.17479 -52.27258,48.21355 l -7.73102,7.34323 z"
     id="path44"

  <path
     
     d="M 44.191887,321.18849 4.3211483,311.4036 V 157.5588 3.7139866 H 125.57189 c 66.6879,0 121.23488,0.2457785 121.2155,0.5461745 -0.0197,0.300396 -4.82585,18.1614689 -10.68108,39.6912719 l -10.64583,39.1451 16.27084,35.917327 16.27084,35.91732 -12.46114,21.06429 c -6.85364,11.58536 -30.68796,48.94257 -52.96516,83.01601 -32.18276,49.22424 -40.98195,61.29022 -42.83049,58.73179 -1.27957,-1.77099 -9.2083,-17.54898 -17.61939,-35.06222 -8.41109,-17.51324 -15.78444,-31.88895 -16.38523,-31.94606 -0.6008,-0.057 -6.40844,18.0734 -12.90587,40.28994 -9.086005,31.06759 -12.616846,40.34235 -15.292889,40.17112 -1.913651,-0.12248 -21.421198,-4.62586 -43.350104,-10.00756 z"
     id="path45"

  <path
     
     d="m 2.1364503,502.17739 c 0,-52.67596 0.6420823,-116.3917 1.4268495,-141.59054 l 1.4268494,-45.81608 43.6644158,10.56782 c 24.015431,5.8123 43.925333,10.29541 44.244231,9.96248 0.318896,-0.33293 5.200421,-16.33516 10.847834,-35.5605 5.6474,-19.22535 10.95669,-36.21167 11.79841,-37.74739 0.91841,-1.67562 7.86293,10.59763 17.36583,30.69111 l 15.83543,33.48331 -12.34123,27.2034 c -6.78768,14.96186 -12.28689,29.66118 -12.22047,32.66514 0.0664,3.00396 9.02652,43.21116 19.91134,89.34935 10.88483,46.13817 19.47775,84.20044 19.09538,84.5828 -0.81014,0.81015 -156.7278784,37.98356 -159.3157428,37.98356 -0.9565198,0 -1.7391269,-43.0985 -1.7391269,-95.77446 z"
     id="path46"

  <path
     
     d="m 274.30622,893.16902 c -3.29101,-5.32499 -7.82131,-29.0242 -7.82131,-40.91544 v -13.49812 l -35.17552,-36.29093 c -19.34655,-19.96001 -35.9327,-36.29094 -36.85812,-36.29094 -0.92543,0 -9.09678,5.91828 -18.15857,13.15173 -12.12172,9.67601 -19.40117,17.75919 -27.54456,30.58577 -6.08772,9.58873 -12.47486,17.43405 -14.19365,17.43405 -1.71879,0 -19.45567,-3.4409 -39.415286,-7.64645 -29.273876,-6.16808 -41.102983,-7.64644 -61.183038,-7.64644 H 9.0633404 L 7.8281066,796.21319 C 5.6057554,767.71659 1.5473655,604.36679 3.0250133,602.88914 3.8176174,602.09654 40.756071,592.85388 85.110468,582.3499 l 80.644352,-19.09815 134.31882,72.48871 c 73.87534,39.8688 133.82625,72.99151 133.22421,73.60603 -0.60203,0.61451 -24.86341,7.07324 -53.91417,14.35272 l -52.81958,13.23541 -0.57544,72.37039 -0.57545,72.3704 -11.70634,6.69769 c -9.52947,5.45222 -14.17198,6.69768 -24.96581,6.69768 -7.29272,0 -13.78839,-0.85579 -14.43484,-1.90176 z"
     id="path47"

  <path
     
     d="m 304.17794,634.35727 c -73.59317,-39.84912 -133.80389,-72.9445 -133.80159,-73.54529 0.002,-0.60079 23.43257,-22.54679 52.06727,-48.76889 51.12351,-46.81612 52.48082,-47.86732 75.20859,-58.24693 l 23.14549,-10.57038 7.2526,3.81493 c 3.98893,2.0982 33.03775,17.32218 64.55294,33.83105 l 57.30035,30.01612 39.26973,-12.05555 39.26971,-12.05556 48.91027,27.73264 48.91026,27.73264 -91.57686,81.92617 c -50.36728,45.0594 -92.73025,82.08723 -94.13993,82.2841 -1.4097,0.19684 -62.77566,-32.24593 -136.36883,-72.09505 z"
     id="path48"

  <path
     
     d="m 567.97324,950.35074 c -11.41505,-12.73256 -23.00209,-26.44685 -25.74897,-30.47623 -4.77784,-7.00859 -5.59121,-7.32615 -18.76434,-7.32615 h -13.77 l -2.76637,-18.59422 -2.76636,-18.59423 -17.23123,-16.00815 c -11.82237,-10.98322 -29.96505,-23.79558 -57.79785,-40.81684 -22.31164,-13.64477 -40.91437,-25.37137 -41.33941,-26.05909 -0.42504,-0.68773 2.06835,-7.91039 5.54087,-16.05036 4.5117,-10.57594 5.5497,-15.07262 3.63691,-15.75535 -1.47221,-0.52547 -16.34454,-5.73681 -33.04961,-11.58075 l -30.37286,-10.62535 51.12749,-12.79616 c 28.12012,-7.03788 52.60217,-12.79293 54.40454,-12.789 3.82482,0.008 208.1456,164.26923 250.65934,201.51414 18.42116,16.13818 27.93416,25.8643 26.21638,26.8037 -3.81051,2.08381 -120.53783,32.54656 -124.20284,32.41364 -1.66159,-0.0602 -12.36065,-10.52708 -23.77569,-23.2596 z"
     id="path49"

  <path
     
     d="M 693.2798,912.75776 C 679.95625,900.991 618.74379,850.78341 557.25212,801.18532 495.76045,751.58724 445.7356,710.20637 446.08579,709.22787 c 0.35019,-0.97851 41.9275,-38.69924 92.39402,-83.82386 81.69252,-73.04533 96.6289,-85.42209 136.16987,-112.83467 24.42689,-16.93445 44.67214,-30.45785 44.98944,-30.05202 0.31729,0.40583 2.83581,27.37385 5.5967,59.92892 l 5.01982,59.19104 36.85018,18.32318 36.85017,18.32318 -33.89935,33.9491 -33.89937,33.94909 90.77041,53.34609 c 56.24623,33.05609 89.6988,53.93787 87.95294,54.90205 -1.5496,0.85579 -23.46284,5.64637 -48.69611,10.64577 -25.23326,4.9994 -47.50623,9.5582 -49.49551,10.13073 -2.82862,0.81406 -4.20725,6.02244 -6.32579,23.89852 -2.30916,19.4844 -3.28518,22.8576 -6.6138,22.8576 -2.14769,0 -25.10481,-3.4409 -51.01581,-7.64645 -25.91099,-4.20554 -48.96091,-7.64644 -51.22205,-7.64644 -3.74036,0 -3.15525,2.99358 6.48792,33.19404 5.82945,18.25674 10.35286,33.44021 10.05199,33.74107 -0.30086,0.30085 -11.4481,-9.08031 -24.77166,-20.84705 z"
     id="path50"

  <path
     
     d="m 626.07499,1053.5587 c -17.90976,-40.1395 -32.46093,-73.73205 -32.33592,-74.65012 0.18419,-1.35278 127.76632,-36.12385 128.45969,-35.01024 0.18149,0.29148 48.004,169.38356 50.60409,178.92716 0.97311,3.5719 -2.74621,3.8197 -56.56152,3.7687 l -57.60313,-0.055 z"
     id="path51"

</svg>