

<svg id="terkep"
  <rect
     style="opacity:1;fill:#000080;fill-opacity:1;stroke:#fc1010;stroke-width:0.79169035;stroke-miterlimit:4;stroke-dasharray:none;stroke-opacity:1"
     id="rect48"
     width="632.63617"
     height="315.52679"
     x="-211.38838"
     y="-5.1384053" />
  <path
     style="fill:none;stroke:#000000;stroke-width:0.26458332px;stroke-linecap:butt;stroke-linejoin:miter;stroke-opacity:1"
     d="m -209.34375,148.5 46.92188,-57.75 25.26562,35.0625 31.45313,23.20312 9.281247,20.10938 3.609375,3.60937 v 3.60938 l 3.093749,3.60937 3.093751,4.64063 h 0.515623 l 3.093752,10.3125 5.671875,1.54687 -21.140626,19.59375 v 4.64063 l -1.03125,5.15625 0.515625,5.67187 2.062501,2.0625 2.578124,2.57813 4.124999,1.03125 h 3.093752 l 2.578124,-0.51563 2.062501,-1.54687 3.609374,-2.57813 5.671876,-5.67187 8.249999,-8.25 10.828126,-8.25 -19.59375,-30.9375 -9.28125,-17.53125 -18.046877,-26.29688 -27.84375,-33.51562 -18.04687,-20.109377 -26.8125,-5.156248 -34.54688,60.328125 z"
     id="path54"
     inkscape:connector-curvature="0" />
  <path
     style="fill:none;stroke:#000000;stroke-width:0.26458332px;stroke-linecap:butt;stroke-linejoin:miter;stroke-opacity:1"
     d="m -7.7343748,103.64062 -65.9999962,75.79688 -9.28125,-17.53125 -18.046879,-26.29688 20.625,-35.06249 40.218752,-7.734382 z"
     id="path56"
     inkscape:connector-curvature="0" />
  <path
     style="fill:none;stroke:#000000;stroke-width:0.26458332px;stroke-linecap:butt;stroke-linejoin:miter;stroke-opacity:1"
     d="M 27.328124,129.9375 -7.7343748,103.64062 -73.734371,179.4375 -54.140623,210.375 -20.625,242.85937 -36.093749,193.35937 -17.53125,173.25 22.6875,179.4375 Z"
     id="path58"
     inkscape:connector-curvature="0" />
  <path
     style="fill:none;stroke:#000000;stroke-width:0.26458332px;stroke-linecap:butt;stroke-linejoin:miter;stroke-opacity:1"
     d="M -20.625,242.85937 2.0625,274.31251 13.921875,234.60937 Z"
     id="path60"
     inkscape:connector-curvature="0" />
  <path
     style="fill:none;stroke:#000000;stroke-width:0.26458332px;stroke-linecap:butt;stroke-linejoin:miter;stroke-opacity:1"
     d="m 2.0625,274.31251 24.234375,35.06248 H 64.453124 L 13.921875,234.60937 Z"
     id="path62"
     inkscape:connector-curvature="0" />
  <path
     style="fill:none;stroke:#000000;stroke-width:0.26458332px;stroke-linecap:butt;stroke-linejoin:miter;stroke-opacity:1"
     d="m 127.35937,231.51562 3.60938,78.37501 -66.515626,-0.51564 -50.531249,-74.76562 z"
     id="path64"
     inkscape:connector-curvature="0" />
  <path
     style="fill:none;stroke:#000000;stroke-width:0.26458332px;stroke-linecap:butt;stroke-linejoin:miter;stroke-opacity:1"
     d="M 13.921875,234.60937 22.6875,179.4375 -17.53125,173.25 l -18.562499,20.10937 15.468749,49.5 z"
     id="path66"
     inkscape:connector-curvature="0" />
  <path
     style="fill:none;stroke:#000000;stroke-width:0.26458332px;stroke-linecap:butt;stroke-linejoin:miter;stroke-opacity:1"
     d="M 27.328124,129.9375 127.35937,231.51562 13.921875,234.60937 22.6875,179.4375 Z"
     id="path68"
     inkscape:connector-curvature="0" />
  <path
     style="fill:none;stroke:#000000;stroke-width:0.26458332px;stroke-linecap:butt;stroke-linejoin:miter;stroke-opacity:1"
     d="m -210.375,190.26562 20.625,26.8125 5.15625,2.57813 6.1875,3.60937 0.51563,6.1875 -3.09375,3.60938 -29.90625,1.54687 z"
     id="path74"
     inkscape:connector-curvature="0" />
  <path
     style="fill:none;stroke:#000000;stroke-width:0.26458332px;stroke-linecap:butt;stroke-linejoin:miter;stroke-opacity:1"
     d="m -177.89062,229.45312 7.21875,29.90625 11.34375,0.51563 7.21875,4.64062 7.73437,9.28124 v 8.76565 l 10.82813,5.15622 8.76562,6.70314 8.76563,6.1875 4.125,7.21876 0.51562,2.57812 -65.48438,-26.29687 z"
     id="path76"
     inkscape:connector-curvature="0" />
  <path
     style="fill:none;stroke:#000000;stroke-width:0.26458332px;stroke-linecap:butt;stroke-linejoin:miter;stroke-opacity:1"
     d="m -111.375,310.40625 -100.01338,-0.018 0.49776,-75.77903 29.90625,-1.54687 3.09375,-3.60938 1.03124,54.65626 z"
     id="path78"
     inkscape:connector-curvature="0" />
  <path
     style="fill:none;stroke:#000000;stroke-width:0.26458332px;stroke-linecap:butt;stroke-linejoin:miter;stroke-opacity:1"
     d="M -40.218748,92.812496 -79.406249,5.1562499 -146.95312,81.984373 l 45.89062,53.624997 20.625,-35.06249 z"
     id="path80"
     inkscape:connector-curvature="0" />
  <path
     style="fill:none;stroke:#000000;stroke-width:0.26458332px;stroke-linecap:butt;stroke-linejoin:miter;stroke-opacity:1"
     d="m -79.406249,5.1562499 -84.046871,-0.515625 -0.51563,51.0468741 5.15625,23.71875 11.85938,2.578124 z"
     id="path82"
     inkscape:connector-curvature="0" />
  <path
     style="fill:none;stroke:#000000;stroke-width:0.26458332px;stroke-linecap:butt;stroke-linejoin:miter;stroke-opacity:1"
     d="m -163.45312,4.6406249 h -47.4375 l 2.57812,132.5156251 34.54688,-60.328125 14.95312,2.578124 -5.15625,-23.71875 z"
     id="path84"
     inkscape:connector-curvature="0" />
  <path
     style="fill:none;stroke:#000000;stroke-width:0.26458332px;stroke-linecap:butt;stroke-linejoin:miter;stroke-opacity:1"
     d="M 51.562499,4.6406249 79.921874,46.406249 80.4375,73.218748 104.15625,57.75 103.125,4.1249999 Z"
     id="path86"
     inkscape:connector-curvature="0" />
  <path
     style="fill:none;stroke:#000000;stroke-width:0.26458332px;stroke-linecap:butt;stroke-linejoin:miter;stroke-opacity:1"
     d="M 80.4375,73.218748 112.40625,109.3125 147.46875,53.625001 104.15625,57.75 Z"
     id="path88"
     inkscape:connector-curvature="0" />
  <path
     style="fill:none;stroke:#000000;stroke-width:0.26458332px;stroke-linecap:butt;stroke-linejoin:miter;stroke-opacity:1"
     d="M 147.46875,53.625001 183.04687,34.03125 153.65625,15.984375 103.125,4.1249999 104.15625,57.75 Z"
     id="path90"
     inkscape:connector-curvature="0" />
  <path
     style="fill:none;stroke:#000000;stroke-width:0.26458332px;stroke-linecap:butt;stroke-linejoin:miter;stroke-opacity:1"
     d="M 103.125,4.1249999 H 235.64062 L 183.04687,34.03125 153.65625,15.984375 Z"
     id="path92"
     inkscape:connector-curvature="0" />
  <path
     style="fill:none;stroke:#000000;stroke-width:0.26458332px;stroke-linecap:butt;stroke-linejoin:miter;stroke-opacity:1"
     d="m 404.76561,4.6406249 -33.51562,60.8437491 48.46876,4.125 v 0"
     id="path94"
     inkscape:connector-curvature="0" />
  <path
     style="fill:none;stroke:#000000;stroke-width:0.26458332px;stroke-linecap:butt;stroke-linejoin:miter;stroke-opacity:1"
     d="m 393.93749,103.64062 -22.6875,-38.156246 48.46876,4.125 0.51562,38.156246 z"
     id="path96"
     inkscape:connector-curvature="0" />
  <path
     style="fill:none;stroke:#000000;stroke-width:0.26458332px;stroke-linecap:butt;stroke-linejoin:miter;stroke-opacity:1"
     d="M 371.24999,65.484374 323.29686,119.625 v 31.45312 l 31.45314,19.59375 65.48437,-62.90625 -26.29688,-4.125 z"
     id="path98"
     inkscape:connector-curvature="0" />
  <path
     style="fill:none;stroke:#000000;stroke-width:0.26458332px;stroke-linecap:butt;stroke-linejoin:miter;stroke-opacity:1"
     d="m 323.29686,151.07812 -7.21873,61.875 104.15624,-12.89062 V 107.76562 L 354.75,170.67187 Z"
     id="path100"
     inkscape:connector-curvature="0" />
  <path
     style="fill:none;stroke:#000000;stroke-width:0.26458332px;stroke-linecap:butt;stroke-linejoin:miter;stroke-opacity:1"
     d="m 316.07813,212.95312 -29.90626,33.51563 -8.76561,-4.64063 -10.31251,1.03125 -10.3125,10.3125 L 259.875,264 l 6.18751,6.70312 13.40623,3.09374 1.54688,35.57813 46.40625,1.03126 8.25,-79.92188 z"
     id="path102"
     inkscape:connector-curvature="0" />
  <path
     style="fill:none;stroke:#000000;stroke-width:0.26458332px;stroke-linecap:butt;stroke-linejoin:miter;stroke-opacity:1"
     d="m 316.07813,212.95312 104.15624,-12.89062 -0.51562,47.95312 -86.10939,-5.15625 2.06251,-12.375 z"
     id="path104"
     inkscape:connector-curvature="0" />
  <path
     style="fill:none;stroke:#000000;stroke-width:0.26458332px;stroke-linecap:butt;stroke-linejoin:miter;stroke-opacity:1"
     d="m 330,285.65625 29.39063,-12.37501 7.73438,3.60937 4.6406,-7.21873 14.95314,-3.60937 -2.0625,-7.21876 -9.79689,-3.09375 1.03127,-11.34375 -42.28127,-1.54688 z"
     id="path106"
     inkscape:connector-curvature="0" />
  <path
     style="fill:none;stroke:#000000;stroke-width:0.26458332px;stroke-linecap:butt;stroke-linejoin:miter;stroke-opacity:1"
     d="m 327.42187,310.40625 2.57813,-24.75 29.39063,-12.37501 7.73438,3.60937 34.03123,33.51564 z"
     id="path108"
     inkscape:connector-curvature="0" />
  <path
     style="fill:none;stroke:#000000;stroke-width:0.26458332px;stroke-linecap:butt;stroke-linejoin:miter;stroke-opacity:1"
     d="m 419.71875,248.01562 -43.82812,-3.60937 -1.03127,11.34375 9.79689,3.09375 2.0625,7.21876 -14.95314,3.60937 -4.6406,7.21873 34.03123,33.51564 20.09156,-0.018 z"
     id="path110"
     inkscape:connector-curvature="0" />
  <path
     style="fill:none;stroke:#000000;stroke-width:0.26458332px;stroke-linecap:butt;stroke-linejoin:miter;stroke-opacity:1"
     d="m 177.89062,101.0625 -8.76562,32.48437 24.75,6.70313 9.79687,-37.125 z"
     id="path112"
     inkscape:connector-curvature="0" />
  <path
     style="fill:none;stroke:#000000;stroke-width:0.26458332px;stroke-linecap:butt;stroke-linejoin:miter;stroke-opacity:1"
     d="m 169.125,133.54687 19.07812,34.03125 17.53125,-10.82812 -2.0625,-53.625 -9.79687,37.125 z"
     id="path114"
     inkscape:connector-curvature="0" />
  <path
     style="fill:none;stroke:#000000;stroke-width:0.26458332px;stroke-linecap:butt;stroke-linejoin:miter;stroke-opacity:1"
     d="M 177.89062,101.0625 228.42187,72.703123 205.73437,156.75 203.67187,103.125 Z"
     id="path116"
     inkscape:connector-curvature="0" />
  <path
     style="fill:none;stroke:#000000;stroke-width:0.26458332px;stroke-linecap:butt;stroke-linejoin:miter;stroke-opacity:1"
     d="m 205.73437,156.75 27.32813,29.90625 2.57812,10.3125 -3.60937,5.67187 -11.34375,4.125 -6.1875,-5.67187 -11.34375,-10.82813 -5.67188,-7.73437 -9.28125,-14.95313 v 0 z"
     id="path118"
     inkscape:connector-curvature="0" />
  <path
     style="fill:none;stroke:#000000;stroke-width:0.26458332px;stroke-linecap:butt;stroke-linejoin:miter;stroke-opacity:1"
     d="m 169.125,133.54687 -10.3125,26.8125 v 13.92188 l 2.57812,5.15625 5.15625,5.15625 7.21875,3.60937 11.34375,4.64063 35.57813,13.92187 -17.53125,-16.5 -14.95313,-22.6875 z"
     id="path120"
     inkscape:connector-curvature="0" />
</svg>
